<?xml version="1.0" encoding="UTF-8"?>
<svg id="Layer_1" data-name="Layer 1" xmlns="http://www.w3.org/2000/svg" viewBox="0 0 160 160">
  <defs>
    <style>
      .cls-1 {
        fill: #fff;
      }

      .cls-2 {
        fill: #fcf7bd;
      }
    </style>
  </defs>
  <g>
    <path class="cls-1" d="M48.29,70.2c-1.93-3.37-4.66-5.96-8.2-7.78-3.54-1.82-7.64-2.73-12.3-2.73h-.82c.67,1.34,1.05,2.86,1.05,4.46,0,1.06-.17,2.08-.47,3.04,4.62.01,8.2,1.32,10.72,3.91,2.54,2.61,3.81,6.22,3.81,10.83s-1.27,8.2-3.81,10.74c-2.54,2.54-6.14,3.81-10.8,3.81h-2.85c-1.9,0-3.44-1.54-3.44-3.44v-19.4c-1,.33-2.06.52-3.17.52-2.13,0-4.1-.67-5.72-1.8v27.25c0,2.44,1.98,4.43,4.43,4.43h11.08c4.66,0,8.76-.91,12.3-2.73,3.54-1.82,6.27-4.39,8.2-7.72,1.93-3.33,2.89-7.21,2.89-11.66s-.96-8.36-2.89-11.72Z"/>
    <circle class="cls-2" cx="18.29" cy="64.17" r="8.21"/>
  </g>
  <path class="cls-1" d="M54.47,88.68c.41-.79.97-1.4,1.69-1.83.73-.44,1.55-.65,2.46-.64.54,0,1.09.12,1.59.33.71.3,1.27.71,1.67,1.24h0s0-4.4,0-4.4c0-.22.18-.4.41-.4h1.8c.22,0,.41.18.41.4v12.72c0,.22-.18.4-.41.4h-1.8c-.22,0-.41-.18-.41-.4v-1.09s0,0,0,0c-.32.5-.77.9-1.34,1.21-.58.3-1.25.46-2.01.46-.86,0-1.65-.22-2.36-.66-.71-.44-1.27-1.06-1.69-1.86-.41-.8-.62-1.72-.62-2.75s.21-1.93.62-2.72ZM61.52,89.84c-.25-.44-.58-.79-1-1.02-.42-.24-.87-.36-1.35-.36s-.92.12-1.33.35c-.41.23-.73.57-.99,1.01-.25.44-.38.97-.38,1.58s.13,1.14.38,1.6c.25.46.58.81,1,1.05.41.24.85.37,1.32.37s.93-.12,1.35-.36c.42-.24.75-.58,1-1.02.25-.44.37-.98.37-1.6s-.12-1.15-.37-1.6Z"/>
  <path class="cls-1" d="M68.89,96.02c-.79-.43-1.4-1.04-1.85-1.84-.45-.79-.67-1.71-.67-2.74s.23-1.95.69-2.74c.46-.79,1.09-1.4,1.89-1.84.8-.43,1.69-.65,2.67-.65s1.87.22,2.67.65c.8.43,1.43,1.05,1.89,1.84.46.79.69,1.71.69,2.74s-.24,1.95-.71,2.74c-.47.79-1.11,1.4-1.92,1.84-.8.43-1.7.65-2.7.65s-1.87-.22-2.65-.65ZM72.86,94.1c.41-.23.74-.56.99-1.01.25-.45.37-1,.37-1.65,0-.96-.26-1.7-.76-2.22-.51-.52-1.13-.78-1.87-.78s-1.35.26-1.85.78c-.5.52-.75,1.26-.75,2.22s.24,1.7.73,2.22c.49.52,1.1.78,1.83.78.47,0,.91-.11,1.32-.34Z"/>
  <path class="cls-1" d="M81.77,88.48v4.9c0,.34.08.59.25.74s.45.23.84.23h.86c.18,0,.33.15.33.33v1.5c0,.18-.15.33-.33.33h-1.29c-2.17,0-3.26-1.05-3.26-3.14v-4.88h-.88c-.18,0-.33-.15-.33-.33v-1.44c0-.18.15-.33.33-.33h.88v-2.17c0-.18.15-.33.33-.33h1.93c.18,0,.33.15.33.33v2.17h1.95c.18,0,.33.15.33.33v1.44c0,.18-.15.33-.33.33h-1.95Z"/>
  <path class="cls-1" d="M89.87,86.67c.58-.3,1.25-.46,2-.46.87,0,1.66.21,2.37.64.71.43,1.27,1.03,1.68,1.82.41.79.62,1.7.62,2.73s-.21,1.95-.62,2.75c-.41.8-.97,1.42-1.68,1.86-.71.44-1.5.66-2.37.66-.76,0-1.43-.15-2-.45s-1.03-.69-1.37-1.16v1.04c0,.22-.18.4-.41.4h-1.77c-.22,0-.41-.18-.41-.4v-12.72c0-.22.18-.4.41-.4h1.77c.22,0,.41.18.41.4v4.48c.33-.49.79-.88,1.37-1.19ZM93.52,89.82c-.25-.44-.58-.78-.99-1.01-.41-.23-.86-.35-1.34-.35s-.91.12-1.32.36c-.41.24-.74.58-.99,1.03-.25.45-.38.98-.38,1.59s.13,1.14.38,1.59c.25.45.58.8.99,1.03.41.24.85.36,1.32.36s.92-.12,1.34-.37c.41-.24.74-.59.99-1.04.25-.45.38-.99.38-1.61s-.13-1.14-.38-1.58Z"/>
  <path class="cls-1" d="M102.29,86.68c.36-.21.76-.34,1.2-.41.34-.05.64.22.64.56v2.08h-.68c-.81,0-1.42.19-1.83.57-.41.38-.62,1.04-.62,1.97v4.48c0,.31-.25.56-.57.56h-1.44c-.31,0-.57-.25-.57-.56v-9c0-.31.25-.56.57-.56h1.44c.31,0,.57.25.57.56v1.01c.33-.54.76-.96,1.3-1.26Z"/>
  <path class="cls-1" d="M105.81,88.68c.41-.79.97-1.4,1.68-1.83.71-.43,1.5-.64,2.37-.64.76,0,1.43.15,2,.46.57.3,1.03.69,1.37,1.15v-.98c0-.26.21-.47.47-.47h1.66c.26,0,.47.21.47.47v9.2c0,.26-.21.47-.47.47h-1.66c-.26,0-.47-.21-.47-.47v-1.01c-.33.48-.79.87-1.37,1.18-.58.31-1.26.47-2.02.47-.86,0-1.64-.22-2.35-.66-.71-.44-1.27-1.06-1.68-1.86-.41-.8-.62-1.72-.62-2.75s.21-1.93.62-2.72ZM112.86,89.84c-.25-.44-.58-.79-.99-1.02-.42-.24-.87-.36-1.35-.36s-.92.12-1.33.35c-.41.23-.73.57-.99,1.01-.25.44-.38.97-.38,1.58s.13,1.14.38,1.6c.25.46.58.81.99,1.05.41.24.85.37,1.32.37s.93-.12,1.35-.36c.42-.24.75-.58.99-1.02.25-.44.37-.98.37-1.6s-.12-1.15-.37-1.6Z"/>
  <path class="cls-1" d="M126.95,87.37c.75.76,1.12,1.83,1.12,3.19v5.94h-2.58v-5.59c0-.8-.2-1.42-.61-1.86-.41-.43-.96-.65-1.66-.65s-1.27.22-1.69.65c-.41.43-.62,1.05-.62,1.86v5.19c0,.22-.18.41-.41.41h-1.76c-.23,0-.41-.18-.41-.41v-9.31c0-.22.18-.41.41-.41h1.76c.23,0,.41.18.41.41v.85c.34-.44.78-.78,1.32-1.03.53-.25,1.12-.37,1.76-.37,1.22,0,2.2.38,2.95,1.14Z"/>
  <path class="cls-1" d="M130.48,88.68c.41-.79.97-1.4,1.69-1.83.73-.44,1.55-.65,2.45-.64.55,0,1.1.12,1.61.33.71.3,1.26.71,1.66,1.24v-4.81h2.62v13.53h-2.62v-1.5c-.32.5-.77.9-1.34,1.21-.58.3-1.25.46-2.01.46-.86,0-1.65-.22-2.36-.66-.71-.44-1.27-1.06-1.69-1.86-.41-.8-.62-1.72-.62-2.75s.21-1.93.62-2.72ZM137.53,89.84c-.25-.44-.58-.79-.99-1.02-.42-.24-.87-.36-1.35-.36s-.92.12-1.33.35c-.41.23-.73.57-.99,1.01-.25.44-.38.97-.38,1.58s.13,1.14.38,1.6c.25.46.58.81.99,1.05.41.24.85.37,1.32.37s.93-.12,1.35-.36c.42-.24.75-.58.99-1.02.25-.44.37-.98.37-1.6s-.12-1.15-.37-1.6Z"/>
  <path class="cls-1" d="M145.38,94.4h4.11c.24,0,.44.2.44.44v1.22c0,.24-.2.44-.44.44h-6.59c-.24,0-.44-.2-.44-.44v-1.23c0-.26.08-.5.24-.71l4.22-5.64h-4c-.24,0-.44-.2-.44-.44v-1.22c0-.24.2-.44.44-.44h6.52c.24,0,.44.2.44.44v1.12c0,.33-.11.65-.31.92l-4.19,5.55Z"/>
  <g>
    <path class="cls-1" d="M56.24,100.29v.3h-.99v3.27h-.36v-3.27h-1v-.3h2.34Z"/>
    <path class="cls-1" d="M61.91,100.29v3.57h-.36v-1.67h-1.93v1.67h-.36v-3.57h.36v1.6h1.93v-1.6h.36Z"/>
    <path class="cls-1" d="M65.53,100.58v1.33h1.35v.3h-1.35v1.35h1.51v.3h-1.86v-3.58h1.86v.3h-1.51Z"/>
    <path class="cls-1" d="M76.11,100.51c.28.14.5.35.65.62.15.27.22.59.22.96s-.07.69-.22.95c-.15.27-.37.47-.65.61-.28.14-.62.21-1.02.21h-1.06v-3.57h1.06c.39,0,.73.07,1.02.21ZM76.23,103.18c.26-.26.39-.62.39-1.09s-.13-.84-.39-1.1c-.26-.26-.64-.4-1.14-.4h-.7v2.98h.7c.5,0,.88-.13,1.14-.39Z"/>
    <path class="cls-1" d="M80.8,103.67c-.27-.15-.48-.37-.64-.65-.16-.28-.23-.59-.23-.94s.08-.66.23-.94c.15-.28.37-.49.64-.65.27-.15.57-.23.9-.23s.63.08.9.23c.27.16.48.37.63.65.15.28.23.59.23.94s-.08.66-.23.94c-.15.28-.36.49-.63.65-.27.15-.57.23-.9.23s-.63-.08-.9-.23ZM82.41,103.4c.21-.12.38-.3.5-.53.12-.23.18-.5.18-.8s-.06-.57-.18-.8c-.12-.23-.29-.4-.5-.53-.21-.12-.45-.18-.71-.18s-.5.06-.71.18c-.21.12-.38.3-.5.53-.12.23-.18.49-.18.8s.06.57.18.8c.12.23.29.41.5.53.21.12.45.18.71.18s.5-.06.71-.18Z"/>
    <path class="cls-1" d="M88.65,100.29v.3h-.99v3.27h-.36v-3.27h-1v-.3h2.34Z"/>
    <path class="cls-1" d="M96.22,103.67c-.27-.15-.48-.37-.64-.65s-.23-.59-.23-.94.08-.66.23-.94.37-.49.64-.65c.27-.15.57-.23.9-.23s.63.08.9.23c.27.16.48.37.63.65.15.28.23.59.23.94s-.08.66-.23.94c-.15.28-.36.49-.63.65s-.57.23-.9.23-.63-.08-.9-.23ZM97.83,103.4c.21-.12.38-.3.5-.53.12-.23.18-.5.18-.8s-.06-.57-.18-.8-.29-.4-.5-.53c-.21-.12-.45-.18-.71-.18s-.5.06-.71.18c-.21.12-.38.3-.5.53s-.18.49-.18.8.06.57.18.8c.12.23.29.41.5.53.21.12.45.18.71.18s.5-.06.71-.18Z"/>
    <path class="cls-1" d="M103.91,100.29v.3h-1.57v1.33h1.33v.3h-1.33v1.64h-.36v-3.57h1.93Z"/>
    <path class="cls-1" d="M110.86,101.13c.15-.28.36-.49.63-.65.27-.15.56-.23.89-.23.4,0,.74.09,1.02.28s.49.46.62.8h-.42c-.1-.24-.26-.43-.47-.57s-.46-.2-.76-.2c-.26,0-.5.06-.71.18s-.37.3-.49.53c-.12.23-.18.5-.18.8s.06.57.18.8c.12.23.28.4.49.53.21.12.44.18.71.18.3,0,.55-.07.76-.2.21-.13.36-.32.47-.56h.42c-.13.34-.34.6-.62.79-.29.19-.63.28-1.02.28-.33,0-.62-.08-.89-.23s-.47-.37-.63-.65c-.15-.28-.23-.59-.23-.94s.08-.66.23-.94Z"/>
    <path class="cls-1" d="M119.08,103.86l-.88-1.49h-.66v1.49h-.36v-3.57h1.07c.4,0,.7.1.91.29.21.19.31.44.31.75,0,.26-.07.48-.22.66s-.37.3-.66.35l.92,1.52h-.43ZM117.54,102.08h.72c.28,0,.49-.07.63-.2.14-.14.21-.32.21-.55s-.07-.42-.2-.54c-.14-.13-.35-.19-.64-.19h-.71v1.49Z"/>
    <path class="cls-1" d="M122.98,100.58v1.33h1.35v.3h-1.35v1.35h1.51v.3h-1.86v-3.58h1.86v.3h-1.51Z"/>
    <path class="cls-1" d="M129.71,103.02h-1.62l-.31.85h-.38l1.3-3.52h.4l1.3,3.52h-.38l-.31-.85ZM129.6,102.72l-.7-1.93-.7,1.93h1.41Z"/>
    <path class="cls-1" d="M135.51,100.29v.3h-.99v3.27h-.36v-3.27h-.99v-.3h2.34Z"/>
    <path class="cls-1" d="M138.88,100.29v3.57h-.36v-3.57h.36Z"/>
    <path class="cls-1" d="M144.97,100.29l-1.35,3.57h-.41l-1.35-3.57h.39l1.17,3.18,1.18-3.18h.38Z"/>
    <path class="cls-1" d="M148.31,100.58v1.33h1.35v.3h-1.35v1.35h1.51v.3h-1.86v-3.58h1.86v.3h-1.51Z"/>
  </g>
</svg>